HIERARCHY
ROOT hip
{
	OFFSET 0.000000 0.000000 0.000000 
	CHANNELS 6 Xposition Yposition Zposition Xrotation Zrotation Yrotation
	JOINT abdomen
	{
		OFFSET 0.000000 3.402643 0.000000 
		CHANNELS 3 Xrotation Zrotation Yrotation
		JOINT chest
		{
			OFFSET 0.000000 8.438565 -0.680529 
			CHANNELS 3 Xrotation Zrotation Yrotation
			JOINT neck
			{
				OFFSET 0.000000 10.207942 -0.272212 
				CHANNELS 3 Xrotation Zrotation Yrotation
				JOINT head
				{
					OFFSET 0.000000 3.130431 0.000000 
					CHANNELS 3 Xrotation Zrotation Yrotation
					End Site
					{
						OFFSET 0.000000 3.130435 0.000000 
					}
				}
			}
			JOINT lCollar
			{
				OFFSET 3.470700 6.669187 -0.816635 
				CHANNELS 3 Yrotation Zrotation Xrotation
				JOINT lShldr
				{
					OFFSET 3.198488 0.000000 0.000000 
					CHANNELS 3 Zrotation Yrotation Xrotation
					JOINT lForeArm
					{
						OFFSET 10.139888 0.000000 0.000000 
						CHANNELS 3 Yrotation Zrotation Xrotation
						JOINT lHand
						{
							OFFSET 8.370511 0.000000 0.000000 
							CHANNELS 3 Zrotation Yrotation Xrotation
							End Site
							{
								OFFSET 4.083176 0.000000 0.000000 
							}
						}
					}
				}
			}
			JOINT rCollar
			{
				OFFSET -3.470700 6.669187 -0.816635 
				CHANNELS 3 Yrotation Zrotation Xrotation
				JOINT rShldr
				{
					OFFSET -3.198488 0.000000 0.000000 
					CHANNELS 3 Zrotation Yrotation Xrotation
					JOINT rForeArm
					{
						OFFSET -10.139888 0.000000 0.000000 
						CHANNELS 3 Yrotation Zrotation Xrotation
						JOINT rHand
						{
							OFFSET -8.370511 0.000000 0.000000 
							CHANNELS 3 Zrotation Yrotation Xrotation
							End Site
							{
								OFFSET -4.083176 0.000000 0.000000 
							}
						}
					}
				}
			}
		}
	}
	JOINT lThigh
	{
		OFFSET 5.308129 -1.633274 1.361059 
		CHANNELS 3 Xrotation Zrotation Yrotation
		JOINT lShin
		{
			OFFSET -2.041588 -20.007561 0.000000 
			CHANNELS 3 Xrotation Zrotation Yrotation
			JOINT lFoot
			{
				OFFSET 0.000000 -19.190928 -1.224953 
				CHANNELS 3 Xrotation Yrotation Zrotation
				End Site
				{
					OFFSET 0.000000 -2.449906 4.627600 
				}
			}
		}
	}
	JOINT rThigh
	{
		OFFSET -5.308129 -1.633274 1.361059 
		CHANNELS 3 Xrotation Zrotation Yrotation
		JOINT rShin
		{
			OFFSET 2.041588 -20.007561 0.000000 
			CHANNELS 3 Xrotation Zrotation Yrotation
			JOINT rFoot
			{
				OFFSET 0.000000 -19.190928 -1.224953 
				CHANNELS 3 Xrotation Yrotation Zrotation
				End Site
				{
					OFFSET 0.000000 -2.449906 4.627600 
				}
			}
		}
	}
}
MOTION
Frames: 6
Frame Time: 0.016667
1.255338 41.937172 -1.076418 31.460173 1.728455 -0.478592 -0.321318 -1.396443 -0.439799 -6.154382 -2.472610 4.564718 -0.047480 0.527342 0.146568 -0.586622 3.187930 -3.344988 14.768906 3.800281 -2.235481 -44.670429 44.904198 -17.168238 -44.431541 -18.912188 -8.513571 -10.072045 -19.019112 1.326313 23.634150 -2.883886 3.544442 35.429596 44.539810 -5.217468 53.387566 18.062719 -9.633034 15.877687 28.316763 4.366183 -74.493263 4.149923 -2.234770 38.447693 -6.529107 -5.075481 -20.176214 0.640851 2.006901 -10.807838 -9.255502 -0.686844 71.267647 2.168087 4.067701 -0.094157 9.447942 4.151637 
1.643758 39.929413 -0.500841 31.026110 2.470406 -0.889109 -0.337539 -1.142492 -0.703375 -6.359803 -2.036272 3.908637 -0.047278 0.478513 0.185622 -0.414785 2.936930 -2.375932 17.215294 5.423251 -4.066382 -36.993328 39.880791 -12.875686 -42.242016 -24.883690 -8.287666 -10.289165 -18.013134 1.712935 20.499590 -2.730724 3.640743 36.477745 41.169621 0.960194 56.211254 10.741577 -7.392308 14.122915 28.320118 3.624776 -76.355042 3.144318 -0.444951 54.404846 -7.972241 -7.263296 -27.838491 3.782789 4.127926 -23.110619 -11.364986 1.243825 80.357971 0.322328 3.995941 -0.739511 6.522513 8.157968 
2.032129 37.922085 0.074651 30.581944 3.212077 -1.290868 -0.365864 -0.888545 -0.966984 -6.555999 -1.608748 3.243376 -0.047110 0.419918 0.234440 -0.251282 2.694512 -1.397694 19.711216 6.966276 -5.985335 -30.301250 34.502331 -9.703903 -39.898579 -30.841148 -7.770413 -10.486659 -17.007008 2.082330 17.354946 -2.578448 3.745844 37.011894 37.743153 6.754099 59.285316 3.557919 -4.815320 12.357239 28.306416 2.877209 -78.224899 2.206428 1.424965 70.460571 -8.717196 -9.789332 -35.651630 6.617299 6.649205 -35.573372 -13.026578 3.631628 89.467026 -1.474452 3.673921 -1.182132 3.531977 12.070275 
2.230210 37.594406 0.307135 29.837162 3.495068 -1.388902 -1.419887 -0.820163 -1.093917 -6.137410 -1.199983 2.549291 -0.037153 0.302728 0.361375 -0.376235 2.294664 -0.859859 20.557968 6.537114 -7.101767 -29.375906 30.840313 -10.748629 -39.979359 -34.163200 -7.794394 -9.746437 -16.333652 1.369309 13.244169 -2.172476 3.322150 36.187157 33.574139 9.493929 61.013077 0.294544 -3.518393 10.345271 27.203375 1.060784 -72.942032 1.278448 2.121741 74.204704 -9.030821 -10.293285 -36.452206 10.242371 8.680683 -45.247593 -14.627472 5.133296 93.426582 -1.884801 3.479521 -1.223640 3.610186 12.563100 
2.428247 37.267094 0.539537 29.091156 3.787789 -1.487583 -2.473667 -0.771306 -1.230620 -5.719289 -0.800361 1.855560 -0.027716 0.185540 0.488310 -0.508384 1.894503 -0.312652 21.389109 6.091215 -8.223115 -28.411413 27.185316 -11.824195 -40.062366 -37.495667 -7.829645 -9.020047 -15.657913 0.662458 9.144151 -1.749036 2.923728 35.168106 29.443579 12.175884 62.829201 -2.935375 -2.121162 8.394617 26.039648 -0.696220 -67.660393 0.282832 2.729630 77.945847 -9.304568 -10.800067 -37.394218 13.825916 10.794461 -55.034603 -15.956377 6.893801 97.369148 -2.255709 3.252601 -1.244882 3.680021 12.978146 
2.463330 38.235737 0.477919 28.272736 3.651318 -1.359641 -4.084575 -0.790833 -1.230621 -4.902854 -0.478405 1.230507 -0.028202 0.136714 0.459006 -0.826372 1.367174 -0.253834 20.814346 4.219542 -8.677133 -33.493031 25.998440 -17.531771 -42.444801 -38.774910 -9.062346 -8.071216 -15.327488 -0.309339 4.554955 -1.312413 2.171710 33.270535 25.404287 13.057438 63.723671 -1.841053 -2.698797 6.653691 24.337505 -2.318657 -60.457317 -0.058818 2.678999 77.408264 -9.118816 -10.843863 -36.527805 17.157846 13.188683 -60.823025 -16.630074 7.736271 98.091011 -2.099486 3.187376 -2.815311 4.801694 11.018881 
